 <svg
      id="Groupe_406"
      data-name="Groupe 406"
      xmlns="http://www.w3.org/2000/svg"
      width="139.918"
      height="43.627"
      viewBox="0 0 139.918 43.627"
    >
      <defs>
        <clipPath id="clip-path">
          <rect
            id="Rectangle_374"
            data-name="Rectangle 374"
            width="139.918"
            height="43.627"
            fill="none"
          />
        </clipPath>
      </defs>
      <rect
        id="Rectangle_371"
        data-name="Rectangle 371"
        width="4.852"
        height="24.937"
        transform="translate(48.309 8.502)"
      />
      <rect
        id="Rectangle_372"
        data-name="Rectangle 372"
        width="4.852"
        height="33.408"
        transform="translate(85.668 0.031)"
      />
      <g
        id="Groupe_379"
        data-name="Groupe 379"
      >
        <g
          id="Groupe_378"
          data-name="Groupe 378"
          clipPath="url(#clip-path)"
        >
          <path
            id="Tracé_791"
            data-name="Tracé 791"
            d="M216.568,28.052c-5.773,0-8.975,4.125-9.655,9.655V28.683h-4.851V63.807h4.851V45.032c.679,5.724,4.658,9.218,9.655,9.218,6.355,0,10.916-5.482,10.916-13.1,0-7.471-4.658-13.1-10.916-13.1m-1.9,21.783c-4.373,0-7.969-3.153-7.969-8.684,0-4.852,3.207-8.684,7.871-8.684,4.518,0,7.969,3.348,7.969,8.684,0,5.191-3.45,8.684-7.871,8.684"
            transform="translate(-145.362 -20.18)"
          />
          <rect
            id="Rectangle_373"
            data-name="Rectangle 373"
            width="4.852"
            height="24.937"
            transform="translate(94.066 8.502)"
          />
          <path
            id="Tracé_792"
            data-name="Tracé 792"
            d="M468.539,28.052h0Z"
            transform="translate(-337.064 -20.18)"
          />
          <path
            id="Tracé_793"
            data-name="Tracé 793"
            d="M394.162,28.052c-4.366,0-7.616,3.154-7.81,8.587-.582-6.307-4.415-8.587-8.49-8.587-4.8,0-7.86,3.493-7.86,8.587V28.683H365.15V53.62H370V39.065c0-3.736,2.377-6.4,5.724-6.4a5.565,5.565,0,0,1,5.773,5.822V53.62h4.852V39.065c0-4.075,2.523-6.4,5.773-6.4,3.4,0,5.628,2.28,5.628,5.87V53.62H402.6v-16.5c0-4.851-2.862-9.072-8.441-9.072"
            transform="translate(-262.686 -20.18)"
          />
          <path
            id="Tracé_794"
            data-name="Tracé 794"
            d="M174.127.252a2.615,2.615,0,1,0,2.616,2.616A2.616,2.616,0,0,0,174.127.252"
            transform="translate(-123.384 -0.181)"
          />
          <path
            id="Tracé_795"
            data-name="Tracé 795"
            d="M337.164.115a2.615,2.615,0,1,0,2.616,2.615A2.615,2.615,0,0,0,337.164.115"
            transform="translate(-240.671 -0.083)"
          />
          <path
            id="Tracé_796"
            data-name="Tracé 796"
            d="M28.078,0H16.71a16.711,16.711,0,0,0,0,33.421H28.078a16.621,16.621,0,0,0,9.935-3.284,12.578,12.578,0,0,1,1.69,3.3h5.052a17.52,17.52,0,0,0-3.265-6.771A16.7,16.7,0,0,0,28.078,0m9.858,23.288a23.493,23.493,0,0,0-7.163-3.411,35.046,35.046,0,0,0-8.379-1.333v4.861a30.029,30.029,0,0,1,7.124,1.164,19.222,19.222,0,0,1,4.867,2.174,11.783,11.783,0,0,1-6.307,1.824H16.71a11.856,11.856,0,1,1,0-23.712H28.078a11.849,11.849,0,0,1,9.858,18.434"
          />
        </g>
      </g>
    </svg>