<svg xmlns="http://www.w3.org/2000/svg" width="612.933" height="334.698" viewBox="0 0 612.933 334.698">
  <g id="Groupe_553" data-name="Groupe 553" transform="translate(744.556 15760.337)">
    <rect id="Rectangle_540" data-name="Rectangle 540" width="217.261" height="127.253" rx="63.627" transform="translate(-569.032 -15707.601)" fill="#778cff"/>
    <path id="Tracé_1073" data-name="Tracé 1073" d="M-19381.693-16855.67s-7.492,53.752,16.836,86.926" transform="translate(18851.615 1251.135)" fill="none" stroke="#000" stroke-width="2"/>
    <path id="Tracé_1064" data-name="Tracé 1064" d="M-19365.951-16855.67s7.5,53.752-16.832,86.926" transform="translate(18975.963 1251.135)" fill="none" stroke="#000" stroke-width="2"/>
    <path id="Tracé_1070" data-name="Tracé 1070" d="M138.951,30.5A19.048,19.048,0,1,1,119.9,11.45,19.048,19.048,0,0,1,138.951,30.5" transform="translate(-600.791 -15696.313)" fill="#fff"/>
    <path id="Tracé_1065" data-name="Tracé 1065" d="M197,30.5A19.048,19.048,0,1,1,177.956,11.45,19.048,19.048,0,0,1,197,30.5" transform="translate(-617.904 -15696.313)" fill="#fff"/>
    <path id="Tracé_1067" data-name="Tracé 1067" d="M0,3.375c4.818-4.661,14.811-4.335,19.291,0" transform="translate(-450.773 -15638.168) rotate(180)" fill="none" stroke="#000" stroke-miterlimit="10" stroke-width="1.881"/>
    <path id="Tracé_1071" data-name="Tracé 1071" d="M134.351,30.942a14,14,0,1,1-14-14,14,14,0,0,1,14,14" transform="translate(-601.235 -15699.047)"/>
    <path id="Tracé_1066" data-name="Tracé 1066" d="M134.351,30.942a14,14,0,1,1-14-14,14,14,0,0,1,14,14" transform="translate(-560.298 -15699.047)"/>
    <path id="Tracé_1068" data-name="Tracé 1068" d="M169.364,166.251V315.758H181.7" transform="translate(-623.332 -15748.108)" fill="none" stroke="#000" stroke-miterlimit="10" stroke-width="2"/>
    <path id="Tracé_1072" data-name="Tracé 1072" d="M136.366,171.469V320.578H122.919" transform="translate(-604.965 -15752.928)" fill="none" stroke="#000" stroke-miterlimit="10" stroke-width="2"/>
    <path id="Tracé_1069" data-name="Tracé 1069" d="M-832.183-15362.561c13.794,5.555,30.658-18,21.616-18.806s-12.542,19.709-4.852,21.362,30.037-15.829,23.193-20.382-12.949,9.923-11.168,14.708,6.151,7.271,12.809,4.2" transform="translate(346.932 -353.2)" fill="none" stroke="#000" stroke-width="2"/>
    <path id="Tracé_1063" data-name="Tracé 1063" d="M29.191,0h94.165a29.191,29.191,0,1,1,0,58.382H29.191A29.191,29.191,0,1,1,29.191,0Z" transform="matrix(0.914, 0.407, -0.407, 0.914, -316.384, -15732.321)"/>
    <rect id="Rectangle_541" data-name="Rectangle 541" width="152.547" height="58.382" rx="29.191" transform="matrix(0.819, -0.574, 0.574, 0.819, -721.269, -15672.84)" fill="#fed664"/>
    <text id="Rapidité" transform="matrix(0.914, 0.407, -0.407, 0.914, -263.466, -15669.345)" fill="#fdf8ef" font-size="22" font-family="GTWalsheimPro-Regular, GT Walsheim Pro"><tspan x="-40.843" y="0">Rapidité</tspan></text>
    <text id="Assistance" transform="matrix(0.819, -0.574, 0.574, 0.819, -641.048, -15685.051)" font-size="22" font-family="GTWalsheimPro-Regular, GT Walsheim Pro"><tspan x="-51.854" y="0">Assistance</tspan></text>
    <rect id="Rectangle_539" data-name="Rectangle 539" width="229.763" height="58.382" rx="29.191" transform="translate(-368.304 -15573.1) rotate(-11)" fill="#778cff"/>
    <rect id="Rectangle_543" data-name="Rectangle 543" width="169.545" height="58.382" rx="29.191" transform="translate(-653.26 -15543.282) rotate(22)"/>
    <text id="Accompagnement" transform="translate(-254.6 -15558.519) rotate(-11)" font-size="22" font-family="GTWalsheimPro-Regular, GT Walsheim Pro"><tspan x="-89.562" y="0">Accompagnement</tspan></text>
    <text id="Apprenant" transform="translate(-591.448 -15479.472) rotate(22)" fill="#fdf8ef" font-size="22" font-family="GTWalsheimPro-Regular, GT Walsheim Pro"><tspan x="-51.744" y="0">Apprenant</tspan></text>
    <rect id="Rectangle_542" data-name="Rectangle 542" width="151.606" height="58.382" rx="29.191" transform="translate(-744.556 -15574.067) rotate(-21)" fill="#c2a2ff"/>
    <rect id="Rectangle_544" data-name="Rectangle 544" width="151.606" height="58.382" rx="29.191" transform="matrix(0.985, 0.174, -0.174, 0.985, -359.993, -15510.992)" fill="#c2a2ff"/>
    <text id="Simplicité" transform="translate(-663.983 -15566.426) rotate(-21)" font-size="22" font-family="GTWalsheimPro-Regular, GT Walsheim Pro"><tspan x="-47.509" y="0">Simplicité</tspan></text>
    <text id="Formation" transform="matrix(0.985, 0.174, -0.174, 0.985, -295.675, -15463.086)" font-size="22" font-family="GTWalsheimPro-Regular, GT Walsheim Pro"><tspan x="-50.446" y="0">Formation</tspan></text>
  </g>
</svg>