<?xml version="1.0" encoding="UTF-8"?>
<svg xmlns="http://www.w3.org/2000/svg" viewBox="-1142.1433 -3472.1356 1920 1127.9996">
  <defs>
    <clipPath id="clippath6" transform="">
      <path d="M 0 1080 L 1920 1080 L 1920 0 L 0 0 Z" style="fill: none; clip-rule: nonzero;"></path>
    </clipPath>
    <clipPath id="clippath7" transform="">
      <path d="M 0 1080 L 1920 1080 L 1920 0 L 0 0 Z" style="fill: none; clip-rule: nonzero;"></path>
    </clipPath>
    <clipPath id="clip-1" transform="">
      <path d="M 0 1080 L 1920 1080 L 1920 0 L 0 0 Z" style="fill: none; clip-rule: nonzero;"></path>
    </clipPath>
    <clipPath id="clip-2" transform="">
      <path d="M 0 1080 L 1920 1080 L 1920 0 L 0 0 Z" style="fill: none; clip-rule: nonzero;"></path>
    </clipPath>
    <clipPath id="clip-3" transform="">
      <path d="M 0 1080 L 1920 1080 L 1920 0 L 0 0 Z" style="fill: none; clip-rule: nonzero;"></path>
    </clipPath>
    <clipPath id="clip-4" transform="">
      <path d="M 0 1080 L 1920 1080 L 1920 0 L 0 0 Z" style="fill: none; clip-rule: nonzero;"></path>
    </clipPath>
    <clipPath id="clip-5" transform="">
      <path d="M 0 1080 L 1920 1080 L 1920 0 L 0 0 Z" style="fill: none; clip-rule: nonzero;"></path>
    </clipPath>
    <clipPath id="clip-6" transform="">
      <path d="M 0 1080 L 1920 1080 L 1920 0 L 0 0 Z" style="fill: none; clip-rule: nonzero;"></path>
    </clipPath>
    <clipPath id="clip-7" transform="">
      <path d="M 0 1080 L 1920 1080 L 1920 0 L 0 0 Z" style="fill: none; clip-rule: nonzero;"></path>
    </clipPath>
  </defs>
  <g class="page-4" transform="matrix(1, 0, 0, -1, -1142.143310546875, -2172.000244140625)">
    <g>
      <title>BG</title>
      <g transform="matrix(1, 0, 0, 1.044444, 0, 172.135635)" style="">
        <path d="M 0 0 L 1920 0 L 1920 1080 L 0 1080 Z" style="fill-opacity: 1; fill: rgb(119, 139, 255);"></path>
      </g>
      <g transform="matrix(1.252304, 0, 0, 1.252304, 332.781677, 1300.135254)" style="">
        <path d="M 0 0 L 500.852 -872.5 L 1001.703 0 Z" style="fill: rgb(255, 255, 255); fill-opacity: 1;"></path>
      </g>
    </g>
    <g transform="matrix(1, 0, 0, 1, 0.000011, -199.999863)">
      <g>
        <path d="M 0 1080 L 1920 1080 L 1920 0 L 0 0 Z" style="fill: none;"></path>
      </g>
      <g style="clip-path: url('#clippath6');">
        <g transform="translate(1155.4336 453.3781)">
          <path d="M 0 0 L 0 -0.018 C 0 -63.22 -51.247 -114.484 -114.466 -114.484 L -276.401 -114.484 C -339.602 -114.484 -390.867 -63.22 -390.867 -0.018 L -390.867 0 C -390.867 63.219 -339.602 114.466 -276.401 114.466 L -114.466 114.466 C -51.247 114.466 0 63.219 0 0" style="fill-opacity: 1; fill: rgb(252, 214, 100);"></path>
        </g>
      </g>
      <g style="clip-path: url('#clippath6');">
        <g transform="translate(982.3584 614.3983)">
          <path d="M 0 0 C -1.578 0 -3.168 -0.645 -4.798 -1.935 C -11.247 -7.043 -15.557 -20.436 -13.613 -25.659 C -13.608 -25.674 -13.603 -25.689 -13.598 -25.704 C -5.367 -20.058 2.206 -12.827 4.66 -7.015 C 6.372 -2.964 4.536 -1.742 3.846 -1.282 C 2.563 -0.428 1.285 0 0 0 M -29.072 0.225 C -36.042 0.225 -41.011 -8.553 -42.372 -17.542 C -42.789 -20.3 -42.867 -23.212 -42.513 -25.846 C -39.555 -23.861 -37.287 -21.845 -36.049 -20.663 C -28.089 -13.06 -24.405 -4.803 -25.559 -1.513 C -25.785 -0.867 -26.318 0.013 -28.327 0.191 C -28.579 0.213 -28.827 0.225 -29.072 0.225 M -34.954 -38.439 C -35.779 -38.44 -36.554 -38.365 -37.273 -38.21 C -40.926 -37.424 -43.341 -34.823 -44.74 -31.33 C -52.68 -35.461 -60.769 -36.322 -67.72 -33.521 L -66.401 -30.245 C -58.977 -33.234 -51.536 -31.003 -45.761 -27.828 C -46.429 -24.469 -46.418 -20.676 -45.864 -17.013 C -44.259 -6.414 -37.977 4.596 -28.017 3.709 C -25.107 3.452 -23.052 2.012 -22.226 -0.345 C -20.158 -6.247 -26.387 -16.319 -33.609 -23.217 C -36.213 -25.704 -38.91 -27.82 -41.644 -29.548 C -40.675 -32.238 -39.023 -34.221 -36.53 -34.758 C -32.185 -35.69 -24.349 -32.531 -16.612 -27.682 C -16.721 -27.423 -16.824 -27.159 -16.924 -26.891 C -19.311 -20.477 -14.75 -5.312 -6.991 0.833 C -2.858 4.107 1.687 4.397 5.801 1.658 C 7.655 0.425 10.392 -2.52 7.914 -8.389 C 5.287 -14.606 -2.949 -22.668 -12.039 -28.876 C -10.628 -31.107 -8.785 -32.724 -6.596 -33.626 C -2.883 -35.156 1.7 -34.685 7.034 -32.223 L 8.514 -35.43 C 2.257 -38.318 -3.28 -38.813 -7.943 -36.891 C -10.811 -35.709 -13.203 -33.638 -14.998 -30.81 C -22.193 -35.31 -29.598 -38.439 -34.954 -38.439" style="fill: rgb(0, 0, 0); fill-opacity: 1;"></path>
        </g>
      </g>
      <g style="clip-path: url('#clippath6');">
        <g transform="translate(954.3952 443.45)">
          <path d="M 0 0 C -4.07 0 -7.989 0.837 -11.251 2.648 L -9.537 5.737 C -0.181 0.543 16.119 4.917 21.619 14.09 L 24.647 12.274 C 20.106 4.696 9.637 0 0 0" style="fill: rgb(0, 0, 0); fill-opacity: 1;"></path>
        </g>
      </g>
      <g style="clip-path: url('#clippath6');">
        <g transform="translate(955.2248 499.369)">
          <path d="M 0 0 C 0.005 -18.925 -15.333 -34.272 -34.259 -34.276 C -53.184 -34.281 -68.53 -18.943 -68.535 -0.018 C -68.54 18.908 -53.202 34.254 -34.276 34.259 L -34.269 34.259 C -15.347 34.26 -0.005 18.923 0 0" style="fill: rgb(255, 255, 255); fill-opacity: 1;"></path>
        </g>
      </g>
      <g style="clip-path: url('#clippath6');">
        <g transform="translate(946.2523 506.3533)">
          <path d="M 0 0 C 0.005 -13.913 -11.27 -25.197 -25.184 -25.201 C -39.097 -25.206 -50.38 -13.931 -50.385 -0.018 C -50.39 13.896 -39.115 25.179 -25.201 25.184 L -25.193 25.184 C -11.283 25.184 -0.005 13.91 0 0" style="fill: rgb(0, 0, 0); fill-opacity: 1;"></path>
        </g>
      </g>
      <g style="clip-path: url('#clippath6');">
        <g transform="translate(1033.2623 499.369)">
          <path d="M 0 0 C 0.005 -18.925 -15.333 -34.272 -34.259 -34.276 C -53.184 -34.281 -68.53 -18.943 -68.535 -0.018 C -68.54 18.908 -53.202 34.254 -34.276 34.259 L -34.269 34.259 C -15.347 34.26 -0.005 18.923 0 0" style="fill: rgb(255, 255, 255); fill-opacity: 1;"></path>
        </g>
      </g>
      <g style="clip-path: url('#clippath6');">
        <g transform="translate(1024.2897 506.3533)">
          <path d="M 0 0 C 0.005 -13.913 -11.27 -25.197 -25.184 -25.201 C -39.097 -25.206 -50.38 -13.931 -50.385 -0.018 C -50.39 13.896 -39.115 25.179 -25.201 25.184 L -25.193 25.184 C -11.283 25.184 -0.005 13.91 0 0" style="fill: rgb(0, 0, 0); fill-opacity: 1;"></path>
        </g>
      </g>
      <g style="clip-path: url('#clippath6');">
        <g transform="translate(735.6158 506.5155)">
          <path d="M 0 0 L -115.616 201.484" style="fill: none; stroke: rgb(0, 0, 0); stroke-opacity: 1; stroke-miterlimit: 0; stroke-width: 2px; stroke-dashoffset: 0px;"></path>
        </g>
      </g>
      <g style="clip-path: url('#clippath6');" transform="matrix(1, 0, 0, 1, 127.94500643699081, 419.6454424118706)">
        <g transform="translate(1340 786)">
          <path d="M 0 0 L 120.154 208.082" style="fill: none; stroke: rgb(0, 0, 0); stroke-opacity: 1; stroke-miterlimit: 0; stroke-width: 2px; stroke-dashoffset: 0px;"></path>
        </g>
      </g>
      <g style="clip-path: url('#clippath6');">
        <g transform="translate(609.6158 728.5156)">
          <path d="M 0 0 L -115.616 201.484" style="fill: none; stroke: rgb(0, 0, 0); stroke-opacity: 1; stroke-miterlimit: 0; stroke-width: 2px; stroke-dashoffset: 0px;"></path>
        </g>
      </g>
      <g style="clip-path: url('#clippath6');">
        <g transform="translate(759.6158 704.5156)">
          <path d="M 0 0 L -115.616 201.484" style="fill: none; stroke: rgb(0, 0, 0); stroke-opacity: 1; stroke-miterlimit: 10; stroke-linecap: butt; stroke-linejoin: miter; stroke-width: 2px; stroke-dashoffset: 0px;"></path>
        </g>
      </g>
      <g style="clip-path: url('#clippath6');" transform="matrix(1, 0, 0, 1, -253.587036, 420.135223)">
        <g transform="translate(633.6158 926.5156)">
          <path d="M 0 0 L -115.616 201.484" style="fill: none; stroke: rgb(0, 0, 0); stroke-opacity: 1; stroke-miterlimit: 10; stroke-linecap: butt; stroke-linejoin: miter; stroke-width: 2px; stroke-dashoffset: 0px;"></path>
        </g>
      </g>
      <g style="clip-path: url('#clippath6');">
        <g transform="translate(1097 619.5156)">
          <path d="M 0 0 L 115.616 201.484" style="fill: none; stroke: rgb(0, 0, 0); stroke-opacity: 1; stroke-miterlimit: 10; stroke-linecap: butt; stroke-linejoin: miter; stroke-width: 2px; stroke-dashoffset: 0px;"></path>
        </g>
      </g>
      <g style="clip-path: url('#clippath6');">
        <g transform="translate(973 316)">
          <path d="M 0 0 C 0 7.18 -5.82 13 -13 13 C -20.18 13 -26 7.18 -26 0 C -26 -7.18 -20.18 -13 -13 -13 C -5.82 -13 0 -7.18 0 0 Z" style="fill: none; stroke: rgb(0, 0, 0); stroke-opacity: 1; stroke-miterlimit: 0; stroke-width: 2px; stroke-dashoffset: 0px;"></path>
        </g>
      </g>
      <g>
        <path d="M 0 1080 L 1920 1080 L 1920 0 L 0 0 Z" style="fill: none;"></path>
      </g>
      <g style="clip-path: url('#clippath7');">
        <g transform="translate(537.2381 865.2769)">
          <path d="M 0 0 L 79.27 8.365 C 108.2 11.418 134.127 -9.56 137.18 -38.49 L 137.18 -38.49 C 140.233 -67.421 119.255 -93.348 90.325 -96.401 L 11.056 -104.766 C -17.874 -107.819 -43.802 -86.841 -46.855 -57.911 L -46.855 -57.91 C -49.908 -28.98 -28.93 -3.053 0 0" style="fill-opacity: 1; fill: rgb(252, 214, 100);"></path>
        </g>
      </g>
      <g style="clip-path: url('#clippath7');">
        <g transform="translate(574.3429 876.4003)">
          <path d="M 0 0 C 0 0 -4.863 -8.097 -0.988 -15.912" style="fill: none; stroke: rgb(0, 0, 0); stroke-opacity: 1; stroke-miterlimit: 4.002; stroke-width: 2.001px; stroke-dashoffset: 0px;"></path>
        </g>
      </g>
      <g style="clip-path: url('#clippath7');">
        <g transform="translate(580.0502 877)">
          <path d="M 0 0 C 0 0 -4.863 -8.097 -0.988 -15.912" style="fill: none; stroke: rgb(0, 0, 0); stroke-opacity: 1; stroke-miterlimit: 4.002; stroke-width: 2.001px; stroke-dashoffset: 0px;"></path>
        </g>
      </g>
      <g style="clip-path: url('#clippath7');">
        <g transform="translate(579.0309 838.9374)">
          <path d="M 0 0 C 0.687 -6.506 -4.031 -12.338 -10.537 -13.025 C -17.043 -13.712 -22.875 -8.994 -23.562 -2.488 C -24.249 4.019 -19.531 9.85 -13.025 10.537 C -13.025 10.537 -13.024 10.537 -13.024 10.537 C -6.518 11.224 -0.687 6.506 0 0" style="fill: rgb(255, 255, 255); fill-opacity: 1;"></path>
        </g>
      </g>
      <g style="clip-path: url('#clippath7');">
        <g transform="translate(576.6381 838.6847)">
          <path d="M 0 0 C 0.547 -5.184 -3.212 -9.829 -8.396 -10.376 C -13.58 -10.922 -18.225 -7.163 -18.772 -1.98 C -19.319 3.204 -15.56 7.849 -10.377 8.396 C -5.193 8.943 -0.547 5.184 0 0" style="fill: rgb(0, 0, 0); fill-opacity: 1;"></path>
        </g>
      </g>
      <g style="clip-path: url('#clippath7');">
        <g transform="translate(604.3583 841.6166)">
          <path d="M 0 0 C 0.687 -6.506 -4.031 -12.338 -10.537 -13.025 C -17.043 -13.712 -22.875 -8.994 -23.562 -2.488 C -24.249 4.019 -19.531 9.85 -13.025 10.537 C -13.025 10.537 -13.024 10.537 -13.024 10.537 C -6.518 11.224 -0.687 6.506 0 0" style="fill: rgb(255, 255, 255); fill-opacity: 1;"></path>
        </g>
      </g>
      <g style="clip-path: url('#clippath7');">
        <g transform="translate(601.9662 841.364)">
          <path d="M 0 0 C 0.547 -5.184 -3.212 -9.829 -8.396 -10.376 C -13.58 -10.922 -18.225 -7.163 -18.772 -1.98 C -19.319 3.204 -15.56 7.849 -10.377 8.396 C -5.193 8.943 -0.547 5.184 0 0" style="fill: rgb(0, 0, 0); fill-opacity: 1;"></path>
        </g>
      </g>
      <g style="clip-path: url('#clippath7');">
        <g transform="translate(570.7344 821.7037)">
          <path d="M 0 0 C 2.783 -3.328 7.025 -5.071 11.344 -4.661 C 18.572 -3.899 22.059 2.328 22.059 2.328" style="fill: none; stroke: rgb(0, 0, 0); stroke-opacity: 1; stroke-miterlimit: 4.002; stroke-width: 2.001px; stroke-dashoffset: 0px;"></path>
        </g>
      </g>
      <g style="clip-path: url('#clippath7');">
        <g transform="translate(629.4357 769.4835)">
          <path d="M 0 0 L 19.674 -15.919 L 15.871 20.122" style="fill-opacity: 1; fill: rgb(252, 214, 100);"></path>
        </g>
      </g>
      <g style="clip-path: url('#clippath7');">
        <g transform="translate(1247.3105 776.6951)">
          <path d="M 0 0 L 117.159 -35.616 C 122.952 -37.377 126.22 -43.5 124.459 -49.292 L 106.931 -106.953 C 105.17 -112.745 99.047 -116.013 93.254 -114.253 L -23.905 -78.637 C -29.698 -76.876 -32.966 -70.753 -31.205 -64.96 L -13.677 -7.3 C -11.916 -1.507 -5.793 1.761 0 0" style="fill: rgb(194, 162, 255); fill-opacity: 1;"></path>
        </g>
      </g>
      <g style="clip-path: url('#clippath7');">
        <g transform="translate(1306.1592 765.2149)">
          <path d="M 0 0 C 0 0 -5.955 -4.339 -5.547 -11.133" style="fill: none; stroke: rgb(0, 0, 0); stroke-opacity: 1; stroke-miterlimit: 4.002; stroke-width: 2.001px; stroke-dashoffset: 0px;"></path>
        </g>
      </g>
      <g style="clip-path: url('#clippath7');">
        <g transform="translate(1310.4447 763.9122)">
          <path d="M 0 0 C 0 0 -5.955 -4.339 -5.547 -11.133" style="fill: none; stroke: rgb(0, 0, 0); stroke-opacity: 1; stroke-miterlimit: 4.002; stroke-width: 2.001px; stroke-dashoffset: 0px;"></path>
        </g>
      </g>
      <g style="clip-path: url('#clippath7');">
        <g transform="translate(1298.507 736.9745)">
          <path d="M 0 0 C -1.484 -4.884 -6.647 -7.64 -11.531 -6.155 C -16.414 -4.671 -19.17 0.491 -17.686 5.375 C -16.201 10.259 -11.039 13.015 -6.155 11.53 C -6.155 11.53 -6.155 11.53 -6.155 11.53 C -1.271 10.046 1.484 4.884 0 0" style="fill: rgb(255, 255, 255); fill-opacity: 1;"></path>
        </g>
      </g>
      <g style="clip-path: url('#clippath7');">
        <g transform="translate(1296.7096 737.5204)">
          <path d="M 0 0 C -1.183 -3.891 -5.296 -6.086 -9.187 -4.903 C -13.078 -3.72 -15.273 0.394 -14.09 4.284 C -12.907 8.175 -8.794 10.37 -4.904 9.187 C -1.013 8.004 1.183 3.891 0 0" style="fill: rgb(0, 0, 0); fill-opacity: 1;"></path>
        </g>
      </g>
      <g style="clip-path: url('#clippath7');">
        <g transform="translate(1317.5125 731.197)">
          <path d="M 0 0 C -1.484 -4.884 -6.647 -7.64 -11.531 -6.155 C -16.414 -4.671 -19.17 0.491 -17.686 5.375 C -16.202 10.259 -11.039 13.015 -6.155 11.531 C -6.155 11.53 -6.155 11.53 -6.155 11.53 C -1.271 10.046 1.484 4.884 0 0" style="fill: rgb(255, 255, 255); fill-opacity: 1;"></path>
        </g>
      </g>
      <g style="clip-path: url('#clippath7');">
        <g transform="translate(1315.7156 731.7427)">
          <path d="M 0 0 C -1.183 -3.891 -5.296 -6.086 -9.187 -4.903 C -13.078 -3.72 -15.273 0.394 -14.09 4.284 C -12.907 8.175 -8.794 10.37 -4.904 9.187 C -1.013 8.004 1.183 3.891 0 0" style="fill: rgb(0, 0, 0); fill-opacity: 1;"></path>
        </g>
      </g>
      <g style="clip-path: url('#clippath7');">
        <g transform="translate(1287.3256 727.1149)">
          <path d="M 0 0 C 0.988 -3.237 3.506 -5.779 6.734 -6.798 C 12.159 -8.447 16.557 -5.033 16.557 -5.033" style="fill: none; stroke: rgb(0, 0, 0); stroke-opacity: 1; stroke-miterlimit: 4.002; stroke-width: 2.001px; stroke-dashoffset: 0px;"></path>
        </g>
      </g>
      <g style="clip-path: url('#clippath7');">
        <g transform="translate(1276.7041 681.6729)">
          <path d="M 0 0 L 9.297 -17.419 L 17.521 9.633" style="fill: rgb(194, 162, 255); fill-opacity: 1;"></path>
        </g>
      </g>
      <g style="clip-path: url('#clippath7');">
        <g transform="translate(883.6456 784.6788)">
          <path d="M 0 0 L 18.162 -129.735 L -86.291 -144.358 L -99.983 -46.557 L -72.518 -10.152 Z" style="fill: rgb(254, 214, 100); fill-opacity: 1;"></path>
        </g>
      </g>
      <g style="clip-path: url('#clippath7');">
        <g transform="translate(811.1271 774.5267)">
          <path d="M 0 0 L 4.471 -31.935 L -27.464 -36.405 Z" style="fill: rgb(214, 171, 65); fill-opacity: 1;"></path>
        </g>
      </g>
      <g style="clip-path: url('#clippath7');">
        <g transform="translate(805.0858 720.77)">
          <path d="M 0 0 L 66.531 9.314" style="fill: none; stroke: rgb(0, 0, 0); stroke-opacity: 1; stroke-miterlimit: 10; stroke-width: 2px; stroke-dashoffset: 0px;"></path>
        </g>
      </g>
      <g style="clip-path: url('#clippath7');">
        <g transform="translate(806.9485 707.4639)">
          <path d="M 0 0 L 66.531 9.314" style="fill: none; stroke: rgb(0, 0, 0); stroke-opacity: 1; stroke-miterlimit: 10; stroke-width: 2px; stroke-dashoffset: 0px;"></path>
        </g>
      </g>
      <g style="clip-path: url('#clippath7');">
        <g transform="translate(808.8113 694.1577)">
          <path d="M 0 0 L 42.58 5.961" style="fill: none; stroke: rgb(0, 0, 0); stroke-opacity: 1; stroke-miterlimit: 10; stroke-width: 2px; stroke-dashoffset: 0px;"></path>
        </g>
      </g>
      <g transform="matrix(0.933581, 0.358368, -0.358368, 0.933581, -133.211945, 452.793549)" style="transform-origin: 1156.36px 1054.55px;">
        <g style="clip-path: url('#clippath7');" transform="matrix(1, 0, 0, 1, 79.864136, 171.869385)">
          <g transform="translate(1146.3975 934.2512)">
            <path d="M 0 0 L -39.141 -125.016 L -139.795 -93.502 L -110.289 0.74 L -69.881 21.879 Z" style="fill-opacity: 1; fill: rgb(194, 162, 255);"></path>
          </g>
        </g>
        <g style="clip-path: url('#clippath7');" transform="matrix(1, 0, 0, 1, 79.864136, 171.869385)">
          <g transform="translate(1048.0382 910.1381)">
            <path d="M 0 0 L 64.111 -20.072" style="stroke: rgb(255, 255, 255); stroke-opacity: 1; stroke-miterlimit: 10; stroke-width: 2px; stroke-dashoffset: 0px; fill: rgb(194, 162, 255);"></path>
          </g>
        </g>
        <g style="clip-path: url('#clippath7');" transform="matrix(1, 0, 0, 1, 79.864136, 171.869385)">
          <g transform="translate(1044.0237 897.316)">
            <path d="M 0 0 L 64.111 -20.072" style="stroke: rgb(255, 255, 255); stroke-opacity: 1; stroke-miterlimit: 10; stroke-width: 2px; stroke-dashoffset: 0px; fill: rgb(194, 162, 255);"></path>
          </g>
        </g>
        <g style="clip-path: url('#clippath7');" transform="matrix(1, 0, 0, 1, 79.864136, 171.869385)">
          <g transform="translate(1040.0093 884.4938)">
            <path d="M 0 0 L 41.031 -12.846" style="stroke: rgb(255, 255, 255); stroke-opacity: 1; stroke-miterlimit: 10; stroke-width: 2px; stroke-dashoffset: 0px; fill: rgb(194, 162, 255);"></path>
          </g>
        </g>
      </g>
      <g style="clip-path: url('#clippath7');" transform="matrix(1, 0, 0, 1, -52.641972, 349.364777)">
        <g transform="translate(1076.5167 956.13)">
          <path d="M 0 0 L -9.635 -30.773 L -40.408 -21.138 Z" style="fill-opacity: 1; fill: rgb(194, 162, 255);"></path>
        </g>
      </g>
      <g style="clip-path: url('#clippath7');" transform="matrix(1, 0, 0, 1, 227.4515315345011, 867.0732237066322)">
        <g transform="translate(626.8851 542.066)">
          <path d="M 0 0 C -24.794 -5.56 -40.38 -30.157 -34.819 -54.951 C -40.38 -30.157 -64.976 -14.572 -89.77 -20.132 C -64.976 -14.572 -49.391 10.025 -54.951 34.819 C -49.391 10.025 -24.794 -5.56 0 0" style="fill: rgb(194, 162, 255); fill-opacity: 1;"></path>
        </g>
      </g>
      <g style="clip-path: url('#clippath7'); transform-origin: 1070px 707px;" transform="matrix(0.75471, 0.656059, -0.656059, 0.75471, -368.825012, 327.745941)">
        <g transform="translate(1096.4613 692.7049)">
          <path d="M 0 0 C -14.617 7.897 -32.86 2.451 -40.756 -12.166 C -32.86 2.451 -38.306 20.694 -52.923 28.59 C -38.306 20.694 -20.063 26.139 -12.166 40.756 C -20.063 26.139 -14.617 7.897 0 0" style="fill: rgb(119, 140, 255); fill-opacity: 1;"></path>
        </g>
      </g>
      <g style="clip-path: url('#clippath7');">
        <g transform="translate(1001.5956 365.211)">
          <path d="M 0 0 C -11.929 -0.669 -21.054 -10.877 -20.385 -22.807 C -21.054 -10.877 -31.262 -1.753 -43.191 -2.422 C -31.262 -1.753 -22.138 8.455 -22.807 20.385 C -22.138 8.455 -11.929 -0.669 0 0" style="fill: rgb(254, 214, 100); fill-opacity: 1;"></path>
        </g>
      </g>
      <g style="clip-path: url('#clippath7'); transform-origin: 401.5px 871.5px;">
        <g transform="translate(422.9717 856.1695)">
          <path d="M 0 0 L -36.802 -6.141 L -42.943 30.661 L -6.141 36.802 Z" style="fill: rgb(254, 214, 100); fill-opacity: 1;"></path>
        </g>
      </g>
      <g style="clip-path: url('#clippath7');" transform="matrix(1, 0, 0, 1, -104.844131, 785.803467)">
        <g transform="translate(1334.2833 558.6618)">
          <path d="M 0 0 L -48.556 -15.598 C -58.021 -18.639 -68.158 -13.431 -71.199 -3.966 C -74.239 5.498 -69.031 15.636 -59.567 18.676 L -11.011 34.275 C -1.546 37.315 8.592 32.107 11.632 22.643 C 14.673 13.178 9.465 3.041 0 0" style="fill-opacity: 1; fill: rgb(252, 214, 100);"></path>
        </g>
      </g>
      <g style="clip-path: url('#clippath7');" transform="matrix(1, 0, 0, 1, -26.234005, 145.969269)">
        <g transform="translate(944.0443 983.1843)">
          <path d="M 0 0 L -47.745 17.929 C -57.051 21.424 -61.762 31.802 -58.268 41.108 C -54.773 50.415 -44.395 55.126 -35.089 51.631 L 12.656 33.702 C 21.963 30.207 26.674 19.83 23.179 10.523 L 23.179 10.523 C 19.684 1.216 9.307 -3.495 0 0" style="fill: rgb(119, 140, 255); fill-opacity: 1;"></path>
        </g>
      </g>
      <g style="clip-path: url('#clippath7');" transform="matrix(1, 0, 0, 1, 582.1432898670605, 522.9996304490476)">
        <g transform="translate(860 887.5)">
          <path d="M 0 0 C 0 -9.665 -7.835 -17.5 -17.5 -17.5 C -27.165 -17.5 -35 -9.665 -35 0 C -35 9.665 -27.165 17.5 -17.5 17.5 C -7.835 17.5 0 9.665 0 0" style="fill: rgb(254, 214, 100); fill-opacity: 1;"></path>
        </g>
      </g>
      <g style="clip-path: url('#clippath7');">
        <g transform="translate(1300.7996 1021.3484)">
          <path d="M 0 0 C 4.213 1.847 9.126 -0.071 10.973 -4.284 C 11.34 -5.119 11.566 -6.009 11.644 -6.918 C 11.984 -10.88 15.077 -14.05 19.03 -14.486 C 23.602 -14.993 26.898 -19.11 26.391 -23.683 C 26.291 -24.589 26.042 -25.473 25.655 -26.299 C 23.966 -29.899 25.058 -34.192 28.262 -36.548 C 31.969 -39.273 32.765 -44.486 30.04 -48.193 C 29.499 -48.928 28.842 -49.569 28.094 -50.091 C 24.833 -52.365 23.634 -56.627 25.231 -60.267 C 27.078 -64.481 25.16 -69.393 20.947 -71.241 C 20.112 -71.607 19.222 -71.834 18.313 -71.911 C 14.35 -72.251 11.18 -75.344 10.744 -79.297 C 10.238 -83.87 6.12 -87.165 1.548 -86.659 C 0.641 -86.558 -0.242 -86.31 -1.068 -85.923 C -4.669 -84.233 -8.961 -85.325 -11.317 -88.53 C -14.042 -92.236 -19.256 -93.032 -22.962 -90.307 C -23.697 -89.767 -24.338 -89.109 -24.86 -88.361 C -27.134 -85.1 -31.396 -83.901 -35.037 -85.498 C -39.25 -87.345 -44.163 -85.427 -46.01 -81.214 C -46.376 -80.379 -46.603 -79.489 -46.681 -78.58 C -47.02 -74.618 -50.114 -71.448 -54.067 -71.012 C -58.639 -70.504 -61.934 -66.385 -61.426 -61.813 C -61.325 -60.905 -61.075 -60.02 -60.687 -59.192 C -58.997 -55.592 -60.089 -51.299 -63.294 -48.944 C -67 -46.219 -67.796 -41.005 -65.071 -37.299 C -64.531 -36.564 -63.873 -35.923 -63.125 -35.401 C -59.864 -33.126 -58.665 -28.865 -60.262 -25.224 C -62.109 -21.011 -60.191 -16.098 -55.978 -14.25 C -55.143 -13.884 -54.253 -13.658 -53.344 -13.58 C -49.382 -13.24 -46.212 -10.147 -45.776 -6.194 C -45.265 -1.622 -41.144 1.67 -36.572 1.159 C -35.668 1.057 -34.787 0.809 -33.964 0.423 C -30.364 -1.266 -26.071 -0.174 -23.715 3.031 C -20.99 6.737 -15.777 7.533 -12.07 4.808 C -11.335 4.267 -10.694 3.61 -10.172 2.862 C -7.898 -0.399 -3.636 -1.598 0.004 -0.001 Z" style="fill: rgb(254, 214, 100); fill-opacity: 1;"></path>
        </g>
      </g>
      <g style="clip-path: url('#clippath7');">
        <g transform="translate(1251.3448 950.4568)">
          <path d="M 0 0 L -9.406 -33.433 L 16.844 -25.823 L 34.052 -45.659 L 43.458 -12.227" style="fill: none; stroke: rgb(0, 0, 0); stroke-opacity: 1; stroke-miterlimit: 4; stroke-width: 2px; stroke-dashoffset: 0px;"></path>
        </g>
      </g>
      <g style="clip-path: url('#clippath7');">
        <g transform="translate(1290.8169 1007.1271)">
          <path d="M 0 0 C 16.357 -4.602 25.886 -21.592 21.284 -37.949 C 16.682 -54.305 -0.308 -63.834 -16.665 -59.233 C -33.021 -54.631 -42.551 -37.64 -37.949 -21.284 C -33.347 -4.927 -16.357 4.602 0 0 Z" style="fill: none; stroke: rgb(0, 0, 0); stroke-opacity: 1; stroke-miterlimit: 4; stroke-width: 2px; stroke-dashoffset: 0px;"></path>
        </g>
      </g>
      <g style="clip-path: url('#clippath7');">
        <g transform="translate(1270.4241 981.6303)">
          <path d="M 0 0 L 5.419 -10.838 L 30.227 -0.998" style="fill: none; stroke: rgb(0, 0, 0); stroke-opacity: 1; stroke-miterlimit: 4; stroke-width: 2px; stroke-dashoffset: 0px;"></path>
        </g>
      </g>
      <g transform="matrix(1, 0, 0, 1, -129.74765, 377.394684)">
        <g>
          <g>
            <g style="clip-path: url('#clippath7');">
              <g transform="translate(653.2996 1030.9521)">
                <path d="M 0 0 C 1.63 4.302 6.439 6.468 10.741 4.838 C 11.594 4.515 12.388 4.053 13.091 3.473 C 16.158 0.941 20.588 0.931 23.666 3.449 C 27.229 6.359 32.476 5.831 35.387 2.268 C 35.964 1.562 36.421 0.766 36.74 -0.089 C 38.129 -3.816 41.958 -6.041 45.884 -5.401 C 50.424 -4.662 54.704 -7.743 55.444 -12.284 C 55.59 -13.184 55.588 -14.102 55.437 -15.002 C 54.779 -18.923 56.983 -22.762 60.7 -24.171 C 65.002 -25.801 67.168 -30.609 65.538 -34.911 C 65.215 -35.764 64.754 -36.558 64.173 -37.262 C 61.641 -40.329 61.631 -44.758 64.149 -47.837 C 67.06 -51.4 66.531 -56.647 62.968 -59.557 C 62.262 -60.134 61.466 -60.592 60.611 -60.911 C 56.885 -62.299 54.66 -66.129 55.299 -70.054 C 56.038 -74.595 52.957 -78.875 48.416 -79.614 C 47.516 -79.761 46.598 -79.759 45.698 -79.608 C 41.777 -78.949 37.938 -81.153 36.529 -84.871 C 34.899 -89.173 30.091 -91.339 25.789 -89.709 C 24.936 -89.385 24.142 -88.924 23.438 -88.344 C 20.371 -85.812 15.942 -85.802 12.863 -88.32 C 9.3 -91.229 4.052 -90.699 1.143 -87.136 C 0.565 -86.428 0.107 -85.63 -0.211 -84.773 C -1.6 -81.047 -5.43 -78.822 -9.355 -79.461 C -13.896 -80.2 -18.176 -77.119 -18.915 -72.578 C -19.062 -71.678 -19.06 -70.76 -18.909 -69.86 C -18.25 -65.94 -20.454 -62.1 -24.172 -60.692 C -28.474 -59.062 -30.64 -54.253 -29.009 -49.951 C -28.686 -49.098 -28.225 -48.304 -27.645 -47.6 C -25.113 -44.533 -25.103 -40.104 -27.621 -37.025 C -30.528 -33.46 -29.994 -28.213 -26.429 -25.306 C -25.724 -24.731 -24.93 -24.276 -24.078 -23.958 C -20.351 -22.569 -18.126 -18.74 -18.766 -14.814 C -19.505 -10.274 -16.423 -5.994 -11.883 -5.254 C -10.983 -5.108 -10.064 -5.11 -9.165 -5.261 C -5.244 -5.919 -1.405 -3.715 0.004 0.002 Z" style="fill: rgb(194, 162, 255); fill-opacity: 1;"></path>
              </g>
            </g>
            <g style="clip-path: url('#clippath7');">
              <g transform="translate(669.3055 946.0099)">
                <path d="M 0 0 L 17.29 -30.121 L 30.232 -6.048 L 56.443 -7.645 L 39.153 22.475" style="fill: none; stroke: rgb(0, 0, 0); stroke-opacity: 1; stroke-miterlimit: 4; stroke-width: 2px; stroke-dashoffset: 0px;"></path>
              </g>
            </g>
          </g>
          <g style="clip-path: url('#clippath7');">
            <g transform="translate(656.4672 1013.868)">
              <path d="M 0 0 C 14.736 8.459 33.54 3.371 41.999 -11.366 C 50.458 -26.102 45.37 -44.906 30.634 -53.365 C 15.897 -61.824 -2.906 -56.735 -11.366 -41.999 C -19.825 -27.263 -14.736 -8.459 0 0 Z" style="fill: none; stroke: rgb(0, 0, 0); stroke-opacity: 1; stroke-miterlimit: 4; stroke-width: 2px; stroke-dashoffset: 0px;"></path>
            </g>
          </g>
        </g>
        <g style="clip-path: url('#clippath7');">
          <g transform="translate(660.3996 981.4568)">
            <path d="M 0 0 L 11.533 -3.716 L 21.872 20.887" style="fill: none; stroke: rgb(0, 0, 0); stroke-opacity: 1; stroke-miterlimit: 4; stroke-width: 2px; stroke-dashoffset: 0px;"></path>
          </g>
        </g>
      </g>
      <g style="clip-path: url('#clip-1');">
        <g transform="translate(1096.4613 692.7049)">
          <path d="M 0 0 C -14.617 7.897 -32.86 2.451 -40.756 -12.166 C -32.86 2.451 -38.306 20.694 -52.923 28.59 C -38.306 20.694 -20.063 26.139 -12.166 40.756 C -20.063 26.139 -14.617 7.897 0 0" style="fill: rgb(119, 140, 255); fill-opacity: 1;"></path>
        </g>
      </g>
      <g style="clip-path: url('#clip-2');">
        <g transform="translate(626.8851 542.066)">
          <path d="M 0 0 C -24.794 -5.56 -40.38 -30.157 -34.819 -54.951 C -40.38 -30.157 -64.976 -14.572 -89.77 -20.132 C -64.976 -14.572 -49.391 10.025 -54.951 34.819 C -49.391 10.025 -24.794 -5.56 0 0" style="fill: rgb(194, 162, 255); fill-opacity: 1;"></path>
        </g>
      </g>
      <g transform="matrix(1, 0, 0, 1, 7.848, 98.894997)">
        <g style="clip-path: url('#clip-3');" transform="matrix(1, 0, 0, 1, 79.864136, 171.869385)">
          <g transform="translate(1146.3975 934.2512)">
            <path d="M 0 0 L -39.141 -125.016 L -139.795 -93.502 L -110.289 0.74 L -69.881 21.879 Z" style="fill: rgb(119, 140, 255); fill-opacity: 1;"></path>
          </g>
        </g>
        <g style="clip-path: url('#clip-3');" transform="matrix(1, 0, 0, 1, 79.864136, 171.869385)">
          <g transform="translate(1048.0382 910.1381)">
            <path d="M 0 0 L 64.111 -20.072" style="fill: none; stroke: rgb(255, 255, 255); stroke-opacity: 1; stroke-miterlimit: 10; stroke-width: 2px; stroke-dashoffset: 0px;"></path>
          </g>
        </g>
        <g style="clip-path: url('#clip-3');" transform="matrix(1, 0, 0, 1, 79.864136, 171.869385)">
          <g transform="translate(1044.0237 897.316)">
            <path d="M 0 0 L 64.111 -20.072" style="fill: none; stroke: rgb(255, 255, 255); stroke-opacity: 1; stroke-miterlimit: 10; stroke-width: 2px; stroke-dashoffset: 0px;"></path>
          </g>
        </g>
        <g style="clip-path: url('#clip-3');" transform="matrix(1, 0, 0, 1, 79.864136, 171.869385)">
          <g transform="translate(1040.0093 884.4938)">
            <path d="M 0 0 L 41.031 -12.846" style="fill: none; stroke: rgb(255, 255, 255); stroke-opacity: 1; stroke-miterlimit: 10; stroke-width: 2px; stroke-dashoffset: 0px;"></path>
          </g>
        </g>
      </g>
      <g style="clip-path: url('#clip-4');">
        <g transform="translate(1334.2833 558.6618)">
          <path d="M 0 0 L -48.556 -15.598 C -58.021 -18.639 -68.158 -13.431 -71.199 -3.966 C -74.239 5.498 -69.031 15.636 -59.567 18.676 L -11.011 34.275 C -1.546 37.315 8.592 32.107 11.632 22.643 C 14.673 13.178 9.465 3.041 0 0" style="fill: rgb(119, 140, 255); fill-opacity: 1;"></path>
        </g>
      </g>
      <g style="clip-path: url('#clip-5');" transform="matrix(1, 0, 0, 1, -155.694, 303.997009)">
        <g transform="translate(860 887.5)">
          <path d="M 0 0 C 0 -9.665 -7.835 -17.5 -17.5 -17.5 C -27.165 -17.5 -35 -9.665 -35 0 C -35 9.665 -27.165 17.5 -17.5 17.5 C -7.835 17.5 0 9.665 0 0" style="fill-opacity: 1; fill: rgb(252, 214, 100);"></path>
        </g>
      </g>
      <g style="clip-path: url('#clip-6');">
        <g transform="translate(1340 786)">
          <path d="M 0 0 L 120.154 208.082" style="fill: none; stroke: rgb(0, 0, 0); stroke-opacity: 1; stroke-miterlimit: 0; stroke-width: 2px; stroke-dashoffset: 0px;"></path>
        </g>
      </g>
      <g style="clip-path: url('#clip-7');">
        <g transform="translate(633.6158 926.5156)">
          <path d="M 0 0 L -115.616 201.484" style="fill: none; stroke: rgb(0, 0, 0); stroke-opacity: 1; stroke-miterlimit: 10; stroke-linecap: butt; stroke-linejoin: miter; stroke-width: 2px; stroke-dashoffset: 0px;"></path>
        </g>
      </g>
    </g>
  </g>
</svg>
