<svg xmlns="http://www.w3.org/2000/svg" width="178.838" height="256.559" viewBox="0 0 178.838 256.559"><g transform="translate(-1363.07 -1149.656)"><rect width="170.665" height="96.316" rx="48.158" transform="translate(1366.45 1190.116)" fill="#778cff"/><path d="M134.787,292.98H122.919v-2h9.868V171.469h2Z" transform="translate(1310.208 1113.235)"/><rect width="178.838" height="215.264" transform="translate(1363.07 1190.521)" fill="none"/><path d="M179.334,288.084h-10.97V166.251h2V286.084h8.97Z" transform="translate(1290.233 1118.132)"/><path d="M131.644,26.844A15.394,15.394,0,1,1,116.249,11.45a15.394,15.394,0,0,1,15.395,15.394" transform="translate(1319.696 1185.597)" fill="#fff"/><path d="M130.876,29.2A12.265,12.265,0,1,1,118.61,16.939,12.266,12.266,0,0,1,130.876,29.2" transform="translate(1317.335 1183.236)"/><path d="M189.7,26.844A15.394,15.394,0,1,1,174.3,11.45,15.394,15.394,0,0,1,189.7,26.844" transform="translate(1294.73 1185.597)" fill="#fff"/><path d="M188.93,29.2a12.265,12.265,0,1,1-12.266-12.266A12.266,12.266,0,0,1,188.93,29.2" transform="translate(1292.369 1183.236)"/><path d="M151.009,75.184h0a21.048,21.048,0,0,1-5.62-.675c-2.573-.748-3.113-1.943-3.113-2.814h1.881c0,.129.323.591,1.757,1.007a19.44,19.44,0,0,0,5.1.6h0a19.447,19.447,0,0,0,5.1-.6c1.436-.417,1.759-.879,1.759-1.008h1.881c0,.871-.541,2.066-3.115,2.814A21.059,21.059,0,0,1,151.009,75.184Z" transform="translate(1301.479 1159.688)"/><path d="M43.119,156.124a10.066,10.066,0,0,1-4.058-.84c-2.8-1.221-5.23-3.754-7.211-7.528a43.568,43.568,0,0,1-3.881-11.7,66.87,66.87,0,0,1-1.249-12.069,29.053,29.053,0,0,1,.96-8.75l1.684.572a27.829,27.829,0,0,0-.866,8.163,65.038,65.038,0,0,0,1.215,11.738,42.415,42.415,0,0,0,3.711,11.22c1.788,3.406,3.923,5.669,6.347,6.725,4.239,1.846,9.431-.009,15.43-5.515,7.341-6.737,15.753-18.856,25-36.02l1.565.843C72.425,130.3,63.891,142.578,56.4,149.449a26.637,26.637,0,0,1-9.542,6.066A12.429,12.429,0,0,1,43.119,156.124Z" transform="translate(1351.88 1140.998)"/><path d="M26.483,190.314l-1.319-1.193c8.3-9.179,10.929-27.551,11.757-37.685,1.273-15.592-.043-29.585-2-35.349l1.684-.572c1.1,3.242,1.928,8.518,2.327,14.857a149.656,149.656,0,0,1-.238,21.209,111.905,111.905,0,0,1-3.777,21.881C32.782,180.816,29.944,186.486,26.483,190.314Z" transform="translate(1477.918 1140.72)"/><path d="M3353.34,3083.07l35.09-11.378,32.43,11.378-30.014,10.129Z" transform="translate(-1936.432 -1920.107)" fill="#fdf6ea"/><path d="M3390.845,3094.2a1,1,0,0,1-.261-.035l-37.505-10.129a1,1,0,0,1-.048-1.917l35.09-11.378a1,1,0,0,1,.639.008l32.43,11.378a1,1,0,0,1-.011,1.891l-30.014,10.129A1,1,0,0,1,3390.845,3094.2Zm-33.994-11.217,33.961,9.172,26.973-9.1-29.37-10.3Z" transform="translate(-1936.432 -1920.107)"/><rect width="84.152" height="20.123" transform="translate(1410.858 1192.949)" fill="#778cff"/><path d="M3353.34,3083.264l36.956-12.6,33.672,12.6-31.957,10.444Z" transform="translate(-1937.481 -1913.246)" fill="#fdf6ea"/><path d="M3392.011,3094.708a1,1,0,0,1-.261-.035l-38.671-10.444a1,1,0,0,1-.062-1.912l36.956-12.6a1,1,0,0,1,.673.01l33.672,12.6a1,1,0,0,1-.04,1.887l-31.957,10.444A1,1,0,0,1,3392.011,3094.708Zm-35.247-11.555,35.22,9.512,28.961-9.465-30.664-11.477Z" transform="translate(-1937.481 -1913.246)"/><path d="M3369.432,3074.811v-21.17s7.648-4.323,15.319-4.323,15.365,4.323,15.365,4.323v21.17h-30.684Z" transform="translate(-1933.485 -1885.423)" fill="#fdf6ea"/><path d="M3401.116,3075.811h-32.684v-22.753l.508-.287a38.365,38.365,0,0,1,4.923-2.227,27.807,27.807,0,0,1,21.8,0,38.831,38.831,0,0,1,4.945,2.226l.51.287Zm-30.684-2h28.684v-19.568a40.353,40.353,0,0,0-4.191-1.84,25.811,25.811,0,0,0-20.323,0,39.9,39.9,0,0,0-4.17,1.838Z" transform="translate(-1933.485 -1885.423)"/><path d="M3345.656,3052.711v-7.145L3382,3033.718l34.088,12.579v6.415L3382,3040.8Z" transform="translate(-1929.798 -1883.003)" fill="#fdf6ea"/><path d="M3417.085,3054.12l-1.33-.465-33.769-11.8-37.331,12.237v-9.25l.69-.225,36.672-11.957.326.12,34.742,12.82Zm-70.429-7.827v5.039l35.352-11.588.32.112,32.758,11.448v-4.31l-33.108-12.217Z" transform="translate(-1929.798 -1883.003)"/><path d="M1,30.963H-1V0H1Z" transform="translate(1486.288 1169.625)"/><path d="M.874,8.09-.874,7.118,3.35-.486,5.1.486Z" transform="translate(1482.315 1197.431)"/><path d="M3.35,8.09-.874.486.874-.486,5.1,7.118Z" transform="translate(1486.288 1197.431)"/><path d="M1,8.449H-1V0H1Z" transform="translate(1486.288 1197.844)"/></g></svg>