<svg xmlns="http://www.w3.org/2000/svg" xmlns:xlink="http://www.w3.org/1999/xlink" width="168.1" height="239.279" viewBox="0 0 168.1 239.279"><defs><clipPath id="a"><rect width="163.62" height="196.947" fill="none"/></clipPath></defs><g transform="translate(-390 -1173.05)"><rect width="84.23" height="66.3" rx="33.15" transform="translate(390 1299.613) rotate(-90)" fill="#cab0fc"/><rect width="102.293" height="66.3" rx="33.15" transform="translate(440.117 1302.39) rotate(-90)" fill="#cab0fc"/><rect width="126.563" height="66.3" rx="33.15" transform="translate(491.8 1299.613) rotate(-90)" fill="#cab0fc"/><path d="M1161.18,101.172a14.046,14.046,0,0,1,.152-9.714,17.294,17.294,0,0,1,2.179-4.225l1.6,1.2a15.612,15.612,0,0,0-1.914,3.755,11.9,11.9,0,0,0-.139,8.286Z" transform="translate(-691.95 1104.164)"/><path d="M1161.18,101.172a14.046,14.046,0,0,1,.152-9.714,17.294,17.294,0,0,1,2.179-4.225l1.6,1.2a15.612,15.612,0,0,0-1.914,3.755,11.9,11.9,0,0,0-.139,8.286Z" transform="translate(-687.206 1104.164)"/><g transform="translate(392.368 1215.383)"><g transform="translate(0 0)"><g clip-path="url(#a)"><path d="M133.862,282.725H122.919v-2h8.943V171.469h2Z" transform="translate(-58.824 -85.3)"/></g></g><g transform="translate(0 0)"><g clip-path="url(#a)"><path d="M178.486,277.8H168.364V166.251h2V275.8h8.122Z" transform="translate(-81.051 -80.377)"/><path d="M129.024,25.534A14.084,14.084,0,1,1,114.939,11.45a14.085,14.085,0,0,1,14.085,14.084" transform="translate(-48.265 -5.479)" fill="#fff"/><path d="M127.053,27.293A10.354,10.354,0,1,1,116.7,16.939a10.354,10.354,0,0,1,10.354,10.354" transform="translate(-50.025 -7.239)"/><path d="M187.078,25.534A14.084,14.084,0,1,1,172.993,11.45a14.085,14.085,0,0,1,14.085,14.084" transform="translate(-76.047 -5.479)" fill="#fff"/><path d="M150.346,74.967h0a19.338,19.338,0,0,1-5.164-.62c-2.4-.7-2.906-1.827-2.906-2.651h1.881c0,.065.269.473,1.55.845a17.7,17.7,0,0,0,4.64.546h0a17.711,17.711,0,0,0,4.64-.545c1.282-.372,1.552-.78,1.552-.845h1.881c0,.824-.5,1.953-2.908,2.651A19.346,19.346,0,0,1,150.346,74.967Z" transform="translate(-68.536 -34.311)"/><path d="M283.455,159.173l-1.754-.293c2.239-13.379,4.266-30.333.035-42.792l1.684-.572c1.874,5.517,2.707,12.087,2.547,20.084A162.793,162.793,0,0,1,283.455,159.173Z" transform="translate(-135.23 -55.417)"/><path d="M27.22,159.173A162.787,162.787,0,0,1,24.708,135.6c-.16-8,.673-14.566,2.547-20.084l1.684.572c-4.231,12.459-2.2,29.414.035,42.792Z" transform="translate(-12.241 -55.417)"/><path d="M127.053,27.293A10.354,10.354,0,1,1,116.7,16.939a10.354,10.354,0,0,1,10.354,10.354" transform="translate(-19.753 -7.239)"/></g></g></g></g></svg>