<svg xmlns="http://www.w3.org/2000/svg" xmlns:xlink="http://www.w3.org/1999/xlink" width="173.87" height="214.408" viewBox="0 0 173.87 214.408"><defs><clipPath id="a"><rect width="173.87" height="209.285" transform="translate(0 0)" fill="none"/></clipPath></defs><g transform="translate(-873.065 -1191.998)"><rect width="165.102" height="93.221" rx="46.61" transform="translate(878.566 1191.998)" fill="#ffd96e"/><ellipse cx="8.69" cy="8.69" rx="8.69" ry="8.69" transform="translate(949.938 1196.608)" fill="#fff"/><g transform="translate(873.065 1196.675)" clip-path="url(#a)"><path d="M134.485,290.457H122.919v-2h9.566V168.423h2Z" transform="translate(-54.809 -80.726)"/></g><path d="M179.057,285.3H168.364V164.118h2V283.3h8.693Z" transform="translate(797.546 1121.101)"/><path d="M140.34,31.192A19.742,19.742,0,1,1,120.6,11.45,19.742,19.742,0,0,1,140.34,31.192" transform="translate(818.187 1184.26)" fill="#fff"/><path d="M134.51,31.022a14.083,14.083,0,1,1-14.083-14.083A14.083,14.083,0,0,1,134.51,31.022" transform="translate(818.356 1184.429)"/><path d="M198.394,31.192A19.742,19.742,0,1,1,178.651,11.45a19.742,19.742,0,0,1,19.743,19.742" transform="translate(802.565 1184.26)" fill="#fff"/><path d="M194.319,31.9a14.96,14.96,0,1,1-14.96-14.961A14.961,14.961,0,0,1,194.319,31.9" transform="translate(801.856 1183.552)"/><path d="M150.793,75.113h0a20.49,20.49,0,0,1-5.472-.657c-2.517-.731-3.046-1.9-3.046-2.761h1.881c0,.151.413.583,1.69.954a18.873,18.873,0,0,0,4.947.582h0a18.88,18.88,0,0,0,4.948-.582c1.278-.371,1.691-.8,1.691-.955h1.881c0,.856-.529,2.029-3.048,2.761A20.5,20.5,0,0,1,150.793,75.113Z" transform="translate(809.207 1164.707)"/><path d="M0,0H173.87V209.285H0Z" transform="translate(873.065 1196.675)" fill="none"/><path d="M34.534,140.862q-.389,0-.752-.027a5.925,5.925,0,0,1-3.978-1.691c-1.2-1.249-1.759-3.153-1.671-5.657a29.727,29.727,0,0,1,1.636-7.873,119.586,119.586,0,0,1,8.814-19.21c6-10.955,12.831-21.233,14.832-24.2a16.01,16.01,0,0,1-3.7-2.818,14.915,14.915,0,0,1-3.1-4.639,16.322,16.322,0,0,1-1.2-7.065l1.777.073a13.483,13.483,0,0,0,3.794,10.388,13.347,13.347,0,0,0,4.066,2.888l1.034.413-.632.917c-.082.119-8.281,12.045-15.321,24.9a117.829,117.829,0,0,0-8.679,18.9,28.005,28.005,0,0,0-1.547,7.381c-.071,2.005.326,3.473,1.178,4.362,1.39,1.45,4.172,1.558,8.269.321,4.846-1.463,11.481-4.83,19.722-10.005l.946,1.506c-8.376,5.26-15.156,8.692-20.154,10.2A18.911,18.911,0,0,1,34.534,140.862Z" transform="translate(870.134 1152.499)"/><path d="M54.031,140.862a18.911,18.911,0,0,1-5.337-.925c-5-1.509-11.778-4.942-20.154-10.2l.946-1.506c8.241,5.176,14.877,8.542,19.722,10.005,4.1,1.237,6.88,1.13,8.269-.321.852-.889,1.249-2.357,1.178-4.362a28.006,28.006,0,0,0-1.547-7.381,117.828,117.828,0,0,0-8.679-18.9c-7.04-12.857-15.239-24.784-15.321-24.9l-.632-.917,1.034-.413a13.6,13.6,0,0,0,7.86-13.276l1.777-.073a16.322,16.322,0,0,1-1.2,7.065,14.914,14.914,0,0,1-3.1,4.639,16.01,16.01,0,0,1-3.7,2.818c2,2.964,8.833,13.241,14.832,24.2a119.588,119.588,0,0,1,8.814,19.21,29.726,29.726,0,0,1,1.636,7.873c.088,2.5-.474,4.407-1.671,5.657a5.925,5.925,0,0,1-3.978,1.691Q54.42,140.862,54.031,140.862Z" transform="translate(963.07 1152.499)"/><path d="M5.031,1A4.031,4.031,0,1,0,9.062,5.031,4.035,4.035,0,0,0,5.031,1m0-1A5.031,5.031,0,1,1,0,5.031,5.031,5.031,0,0,1,5.031,0Z" transform="translate(953.597 1200.267)"/><path d="M.354,9.5l-.707-.707L8.793-.354,9.5.354Z" transform="translate(933.016 1206.67)" fill="#fff"/><path d="M.354,9.5l-.707-.707L8.793-.354,9.5.354Z" transform="translate(976.643 1206.67)" fill="#fff"/><path d="M.354,5.842l-.707-.707L5.135-.354l.707.707Z" transform="translate(933.016 1215.817)" fill="#fff"/><path d="M.354,5.842l-.707-.707L5.135-.354l.707.707Z" transform="translate(976.643 1215.817)" fill="#fff"/></g></svg>